<?xml version="1.0" encoding="utf-8"?>
<!-- Generator: Adobe Illustrator 19.0.1, SVG Export Plug-In . SVG Version: 6.00 Build 0)  -->
<svg version="1.1" id="图层_1" xmlns="http://www.w3.org/2000/svg" xmlns:xlink="http://www.w3.org/1999/xlink" x="0px" y="0px"
	 viewBox="48 -74 60 60" style="enable-background:new 48 -74 60 60;" xml:space="preserve">
<style type="text/css">
	.st0{fill:#CC4B00;}
</style>
<path class="st0" d="M106-42H50c-1.1,0-2-0.9-2-2l0,0c0-1.1,0.9-2,2-2h56c1.1,0,2,0.9,2,2l0,0C108-42.9,107.1-42,106-42z"/>
<path class="st0" d="M80-72v56c0,1.1-0.9,2-2,2l0,0c-1.1,0-2-0.9-2-2v-56c0-1.1,0.9-2,2-2l0,0C79.1-74,80-73.1,80-72z"/>
</svg>
