<svg id="图层_1" data-name="图层 1" xmlns="http://www.w3.org/2000/svg" viewBox="0 0 128.1 171.46"><defs><style>.cls-1{fill:#fff;}.cls-2,.cls-3{fill:none;stroke:#cf3c1e;stroke-linecap:round;}.cls-2{stroke-linejoin:round;stroke-width:3px;stroke-dasharray:6.07 6.07 6.07 6.07 6.07 6.07;}.cls-3{stroke-miterlimit:10;stroke-width:4px;}</style></defs><title>add_adventure_hover</title><path class="cls-1" d="M124.09,170H4a2.46,2.46,0,0,1-2.5-2.5V4A2.46,2.46,0,0,1,4,1.5H124.09A2.51,2.51,0,0,1,126.6,4V167.46A2.51,2.51,0,0,1,124.09,170Z"/><path class="cls-2" d="M124.09,170H4a2.46,2.46,0,0,1-2.5-2.5V4A2.46,2.46,0,0,1,4,1.5H124.09A2.51,2.51,0,0,1,126.6,4V167.46A2.51,2.51,0,0,1,124.09,170Z"/><line class="cls-3" x1="64.05" y1="63.31" x2="64.05" y2="106.15"/><line class="cls-3" x1="85.46" y1="84.73" x2="42.63" y2="84.73"/></svg>