<?xml version="1.0" encoding="utf-8"?>
<!-- Generator: Adobe Illustrator 19.0.1, SVG Export Plug-In . SVG Version: 6.00 Build 0)  -->
<svg version="1.1" id="图层_1" xmlns="http://www.w3.org/2000/svg" xmlns:xlink="http://www.w3.org/1999/xlink" x="0px" y="0px"
	 viewBox="0 0 22 22" style="enable-background:new 0 0 22 22;" xml:space="preserve">
<style type="text/css">
	.st0{fill:#393B4B;}
</style>
<g>
	<path class="st0" d="M18,2c1.1,0,2,0.9,2,2v14c0,1.1-0.9,2-2,2H4c-1.1,0-2-0.9-2-2V4c0-1.1,0.9-2,2-2H18 M18,0H4C1.8,0,0,1.8,0,4
		v14c0,2.2,1.8,4,4,4h14c2.2,0,4-1.8,4-4V4C22,1.8,20.2,0,18,0L18,0z"/>
	<g>
		<path class="st0" d="M16,12H6c-0.6,0-1-0.4-1-1v0c0-0.6,0.4-1,1-1h10c0.6,0,1,0.4,1,1v0C17,11.6,16.6,12,16,12z"/>
	</g>
	<g>
		<path class="st0" d="M11,17L11,17c-0.6,0-1-0.4-1-1V6c0-0.6,0.4-1,1-1h0c0.6,0,1,0.4,1,1v10C12,16.6,11.6,17,11,17z"/>
	</g>
</g>
</svg>
