<?xml version="1.0" encoding="utf-8"?>
<!-- Generator: Adobe Illustrator 19.0.1, SVG Export Plug-In . SVG Version: 6.00 Build 0)  -->
<svg version="1.1" id="图层_1" xmlns="http://www.w3.org/2000/svg" xmlns:xlink="http://www.w3.org/1999/xlink" x="0px" y="0px"
	 viewBox="0 0 26 20" style="enable-background:new 0 0 26 20;" xml:space="preserve">
<style type="text/css">
	.st0{fill:#FFFFFF;}
</style>
<g>
	<g>
		<path class="st0" d="M24.3,3.3c0,0-3.5,0-4.6,0c-1.5,0-2.1-3.1-3.6-3.1c-1,0-5.6,0-6.7,0c-1,0-1.5,3.1-3.1,3.1s-4.6,0-4.6,0
			C0.9,3.3,0.2,4,0.2,4.9v13.3c0,0.8,0.7,1.5,1.5,1.5h22.5c0.8,0,1.5-0.7,1.5-1.5l0-13.3C25.8,4,25.1,3.3,24.3,3.3z M24.8,18.2
			c0,0.3-0.2,0.5-0.5,0.5H1.7c-0.3,0-0.5-0.2-0.5-0.5V4.9c0-0.3,0.2-0.5,0.5-0.5h4.6c1.4,0,2.2-1.3,2.7-2.3c0.1-0.3,0.4-0.6,0.5-0.8
			h6.5c0.2,0,0.7,0.7,1,1.1c0.6,0.9,1.3,2,2.6,2h4.6c0.3,0,0.5,0.2,0.5,0.5V18.2z"/>
		<path class="st0" d="M24.3,19.9H1.7c-1,0-1.7-0.8-1.7-1.7V4.9c0-1,0.8-1.7,1.7-1.7h4.6c0.7,0,1.2-0.9,1.7-1.7
			c0.4-0.7,0.8-1.4,1.4-1.4h6.7c0.9,0,1.4,0.8,2,1.6c0.5,0.7,1,1.4,1.6,1.4h4.6c1,0,1.7,0.8,1.7,1.7v13.3
			C26,19.1,25.2,19.9,24.3,19.9z M1.7,3.6C1,3.6,0.4,4.1,0.4,4.9v13.3c0,0.7,0.6,1.3,1.3,1.3h22.5c0.7,0,1.3-0.6,1.3-1.3V4.9
			c0-0.7-0.6-1.3-1.3-1.3h-4.6c-0.8,0-1.4-0.8-1.9-1.6c-0.5-0.8-1-1.5-1.6-1.5H9.4c-0.3,0-0.7,0.6-1,1.2c-0.5,0.9-1.1,1.9-2,1.9H1.7
			z M24.3,18.9H1.7c-0.4,0-0.7-0.3-0.7-0.7V4.9c0-0.4,0.3-0.7,0.7-0.7h4.6c1.3,0,2-1.3,2.6-2.2c0.2-0.3,0.4-0.7,0.5-0.8l0.1-0.1h6.6
			c0.3,0,0.5,0.3,1.1,1.2c0.6,0.8,1.3,1.9,2.4,1.9h4.6c0.4,0,0.7,0.3,0.7,0.7v13.3C25,18.6,24.7,18.9,24.3,18.9z M1.7,4.6
			c-0.2,0-0.3,0.1-0.3,0.3v13.3c0,0.2,0.1,0.3,0.3,0.3h22.5c0.2,0,0.3-0.1,0.3-0.3V4.9c0-0.2-0.1-0.3-0.3-0.3h-4.6
			c-1.4,0-2.2-1.1-2.8-2.1c-0.4-0.6-0.7-1-0.8-1H9.7C9.6,1.7,9.4,2,9.3,2.2c-0.6,1-1.4,2.4-2.9,2.4H1.7z"/>
	</g>
	<g>
		<path class="st0" d="M13,5.2c-3.2,0-5.8,2.6-5.8,5.8s2.6,5.8,5.8,5.8c3.2,0,5.8-2.6,5.8-5.8S16.2,5.2,13,5.2z M13,15.6
			c-2.5,0-4.5-2-4.5-4.5c0-2.5,2-4.5,4.5-4.5c2.5,0,4.5,2,4.5,4.5C17.5,13.5,15.5,15.6,13,15.6z"/>
		<path class="st0" d="M13,16.9c-3.2,0-5.9-2.6-5.9-5.9S9.8,5.1,13,5.1s5.9,2.6,5.9,5.9S16.2,16.9,13,16.9z M13,5.2
			c-3.2,0-5.8,2.6-5.8,5.8s2.6,5.8,5.8,5.8s5.8-2.6,5.8-5.8S16.2,5.2,13,5.2z M13,15.6c-2.5,0-4.6-2.1-4.6-4.6
			c0-2.5,2.1-4.6,4.6-4.6s4.6,2.1,4.6,4.6C17.6,13.6,15.5,15.6,13,15.6z M13,6.5c-2.5,0-4.5,2-4.5,4.5s2,4.5,4.5,4.5s4.5-2,4.5-4.5
			S15.5,6.5,13,6.5z"/>
	</g>
</g>
</svg>
