<?xml version="1.0" encoding="utf-8"?>
<!-- Generator: Adobe Illustrator 19.0.1, SVG Export Plug-In . SVG Version: 6.00 Build 0)  -->
<svg version="1.1" id="图层_1" xmlns="http://www.w3.org/2000/svg" xmlns:xlink="http://www.w3.org/1999/xlink" x="0px" y="0px"
	 viewBox="0 0 26 26" style="enable-background:new 0 0 26 26;" xml:space="preserve">
<style type="text/css">
	.st0{fill:#FFFFFF;}
</style>
<path class="st0" d="M24.2,1.9l-0.1-0.1c-2.4-2.4-6.3-2.4-8.7,0L9.9,7.3c-2.4,2.4-2.4,6.3,0,8.7l0.1,0.1c0.2,0.2,0.4,0.4,0.6,0.5
	l1.3-1.6c-0.2-0.1-0.5-0.3-0.7-0.5l-0.1-0.1C9.8,13.2,9.7,10,11,8.7l6-6c1.3-1.3,4.3-1.2,5.6,0.1L22.8,3c1.3,1.3,1.5,4.5,0.2,5.8
	l-2.9,2.9c0.4,1.1,0.3,1.6,0.2,2.8l3.9-3.9C26.6,8.2,26.6,4.3,24.2,1.9L24.2,1.9L24.2,1.9z M16,9.9c-0.2-0.2-0.4-0.4-0.6-0.5
	L14,10.9c0.2,0.1,0.5,0.3,0.7,0.5l0.1,0.1c1.3,1.3,1.5,4,0.2,5.3L8.8,23c-1.3,1.3-4.2,1.1-5.5-0.2l-0.1-0.1c-1.3-1.3-1.6-4.5,0-5.9
	L6,14.2c-0.4-1.1-0.3-1.5-0.3-2.6l-3.9,3.9c-2.4,2.4-2.4,6.3,0,8.7l0.1,0.1c2.4,2.4,6.3,2.4,8.7,0l5.5-5.5c2.4-2.4,2.4-6.3,0-8.7
	L16,9.9L16,9.9L16,9.9z"/>
</svg>
