<?xml version="1.0" encoding="utf-8"?>
<!-- Generator: Adobe Illustrator 19.0.1, SVG Export Plug-In . SVG Version: 6.00 Build 0)  -->
<svg version="1.1" id="图层_1" xmlns="http://www.w3.org/2000/svg" xmlns:xlink="http://www.w3.org/1999/xlink" x="0px" y="0px"
	 viewBox="0 0 24 26" style="enable-background:new 0 0 24 26;" xml:space="preserve">
<style type="text/css">
	.st0{fill:#FFFFFF;}
</style>
<path class="st0" d="M17.3,0.4c0.5-0.5,1.4-0.5,1.9,0l3,3c0.5,0.5,0.6,1.4,0,1.9L7.6,20c-0.3,0.3-0.8,0.5-1.1,0.6l-4.7,1.3
	c-0.7,0.2-1.2-0.2-1-1L2,16.2c0.1-0.4,0.4-0.9,0.6-1.1L17.3,0.4z M3.6,16c-0.1,0.1-0.3,0.4-0.3,0.5l-1,3.8l3.7-1
	c0.1,0,0.4-0.2,0.6-0.3L21.3,4.4l-3-3L3.6,16z M17.3,2.4l3,3l-1,1l-3-3L17.3,2.4z M5.4,14.3l3,3l-1,1l-3-3L5.4,14.3z M0.4,25.3
	c0-0.4,0.3-0.7,0.7-0.7h21.7c0.4,0,0.7,0.3,0.7,0.7c0,0.4-0.3,0.7-0.7,0.7H1.1C0.7,26,0.4,25.7,0.4,25.3C0.4,25.3,0.4,25.3,0.4,25.3
	z"/>
</svg>
