<?xml version="1.0" encoding="utf-8"?>
<!-- Generator: Adobe Illustrator 19.0.1, SVG Export Plug-In . SVG Version: 6.00 Build 0)  -->
<svg version="1.1" id="图层_1" xmlns="http://www.w3.org/2000/svg" xmlns:xlink="http://www.w3.org/1999/xlink" x="0px" y="0px"
	 viewBox="3 -2 30 30" style="enable-background:new 3 -2 30 30;" xml:space="preserve">
<style type="text/css">
	.st0{fill:#FFFFFF;}
	.st1{fill:#393B4B;}
</style>
<path id="XMLID_5_" class="st0" d="M-12.6,3.1V1.5"/>
<path id="XMLID_3_" class="st0" d="M-10.9,1.5v1.7"/>
<path class="st1" d="M18-2C9.7-2,3,4.7,3,13c0,8.3,6.7,15,15,15c8.3,0,15-6.7,15-15C33,4.7,26.3-2,18-2z M18.7,8v11
	c0,0.6-0.7,1-1.2,0.7l-5.8-3.2c-0.1,0-0.2-0.1-0.4-0.1H9.8c-0.4,0-0.8-0.3-0.8-0.8v-4.1c0-0.5,0.3-0.9,0.8-0.9h1.5
	c0.2,0,0.4,0,0.5-0.1l5.7-3.3C18.1,6.9,18.8,7.3,18.7,8z M26.8,14.3h-2.2v2.1c0,0.5-0.4,0.8-0.8,0.8c-0.5,0-0.8-0.4-0.8-0.8v-2.1
	h-2.1c-0.5-0.1-0.8-0.4-0.8-0.8c0-0.5,0.4-0.8,0.8-0.8H23v-2.2c0-0.5,0.4-0.8,0.8-0.8c0.5,0,0.8,0.4,0.8,0.8v2.2h2.2
	c0.5,0,0.8,0.4,0.8,0.8C27.6,14,27.2,14.3,26.8,14.3z"/>
</svg>
