<?xml version="1.0" encoding="utf-8"?>
<!-- Generator: Adobe Illustrator 19.0.1, SVG Export Plug-In . SVG Version: 6.00 Build 0)  -->
<svg version="1.1" id="图层_1" xmlns="http://www.w3.org/2000/svg" xmlns:xlink="http://www.w3.org/1999/xlink" x="0px" y="0px"
	 viewBox="0 0 23 16" style="enable-background:new 0 0 23 16;" xml:space="preserve">
<style type="text/css">
	.st0{fill:#FFFFFF;}
</style>
<path class="st0" d="M22.6,0.3c-0.4-0.4-1-0.3-1.3,0L8.6,13.7L1.8,6.9c-0.4-0.4-1-0.4-1.3,0c-0.4,0.4-0.4,1,0,1.3L8,15.7
	c0,0,0,0,0,0c0,0,0,0,0,0c0.1,0.1,0.1,0.1,0.2,0.1c0,0,0.1,0,0.1,0.1C8.4,16,8.5,16,8.7,16c0.1,0,0.2,0,0.4-0.1c0,0,0.1,0,0.1-0.1
	c0.1,0,0.1-0.1,0.2-0.1c0,0,0,0,0,0c0,0,0,0,0,0L22.6,1.6C23,1.2,22.9,0.6,22.6,0.3z"/>
</svg>
