<?xml version="1.0" encoding="utf-8"?>
<!-- Generator: Adobe Illustrator 19.0.1, SVG Export Plug-In . SVG Version: 6.00 Build 0)  -->
<svg version="1.1" id="图层_1" xmlns="http://www.w3.org/2000/svg" xmlns:xlink="http://www.w3.org/1999/xlink" x="0px" y="0px"
	 viewBox="-3 0 18 26" style="enable-background:new -3 0 18 26;" xml:space="preserve">
<style type="text/css">
	.st0{fill:#393B4B;}
</style>
<path class="st0" d="M6,26c-4.5,0-8.1-3.6-8.1-8.1c0-1.8,0.6-3.5,1.6-4.9V6.5C-0.5,2.9,2.4,0,6,0s6.5,2.9,6.5,6.5V13
	c1,1.4,1.6,3,1.6,4.9C14.1,22.4,10.5,26,6,26z M10.9,6.5c0-2.7-2.2-4.9-4.9-4.9S1.1,3.8,1.1,6.5v4.9c1.4-1,3-1.6,4.9-1.6
	c1.8,0,3.5,0.6,4.9,1.6V6.5z M11.1,13.8l-0.2-0.2C9.7,12.2,8,11.4,6,11.4c-3.6,0-6.5,2.9-6.5,6.5s2.9,6.5,6.5,6.5s6.5-2.9,6.5-6.5
	C12.5,16.3,12,14.9,11.1,13.8z M6,21.1c-0.4,0-0.8-0.4-0.8-0.8v-3.2c0-0.4,0.4-0.8,0.8-0.8c0.4,0,0.8,0.4,0.8,0.8v3.2
	C6.8,20.8,6.4,21.1,6,21.1z"/>
</svg>
