<?xml version="1.0" encoding="utf-8"?>
<!-- Generator: Adobe Illustrator 16.0.0, SVG Export Plug-In . SVG Version: 6.00 Build 0)  -->
<!DOCTYPE svg PUBLIC "-//W3C//DTD SVG 1.1//EN" "http://www.w3.org/Graphics/SVG/1.1/DTD/svg11.dtd">
<svg version="1.1" id="图层_1" xmlns="http://www.w3.org/2000/svg" xmlns:xlink="http://www.w3.org/1999/xlink" x="0px" y="0px"
	 width="300px" height="300px" viewBox="0 0 300 300" enable-background="new 0 0 300 300" xml:space="preserve">
<g>
	<path fill="#393B4B" d="M168.461,20.769l10.385,31.154c8.077,1.154,15,4.616,20.77,9.231l31.154-12.692L255,72.692l-13.846,30
		c3.461,5.769,5.769,13.846,9.23,20.769l31.154,10.385v34.615l-31.154,10.385c-1.154,6.924-4.615,15-9.23,20.77l13.846,30
		l-24.23,24.23l-30-13.846c-5.77,3.461-13.847,5.77-20.77,9.23l-10.385,31.154h-35.769l-10.385-31.154
		c-8.077-1.153-15-4.615-20.769-9.23l-32.308,13.846l-24.231-24.23l13.846-30c-3.461-5.77-5.769-13.846-9.231-20.77l-31.154-10.385
		v-35.769l31.154-10.385c1.154-8.077,4.616-15,9.231-20.769L47.308,70.385l23.077-24.231l30,13.846
		c5.769-3.461,13.846-5.769,20.769-9.231l10.385-31.154h35.769 M151.154,198.461c25.385,0,48.461-20.769,48.461-48.461
		s-23.076-48.461-48.461-48.461c-25.385,0-48.462,21.923-48.462,48.461C102.692,176.539,124.615,198.461,151.154,198.461 M182.308,0
		h-63.461L105,34.615c-1.154,0-2.308,1.154-3.461,1.154l-34.616-15l-46.154,45l16.154,34.616c0,1.154-1.154,3.461-1.154,4.615
		L0,118.846v64.615L34.615,195c0,1.154,1.154,3.461,1.154,4.615L19.615,234.23l45,45l34.616-16.153c1.154,0,3.461,1.153,4.615,1.153
		l15,35.77h64.615L195,265.385c1.154,0,3.461-1.154,4.615-1.154l34.615,16.154l45-45l-16.153-34.615
		c0-1.154,1.153-3.462,1.153-4.615l34.615-11.539v-65.769L265.385,105c1.154-1.154,0-3.461,0-4.615l16.154-34.616l-45-45
		l-34.616,16.154c-1.153,0-3.462-1.154-4.615-1.154L182.308,0L182.308,0z M151.154,176.539c-15,0-27.693-11.539-27.693-26.539
		s11.539-26.539,27.693-26.539c16.153,0,27.691,11.539,27.691,26.539S166.154,176.539,151.154,176.539L151.154,176.539z"/>
</g>
</svg>
