<?xml version="1.0" encoding="utf-8"?>
<!-- Generator: Adobe Illustrator 19.0.1, SVG Export Plug-In . SVG Version: 6.00 Build 0)  -->
<svg version="1.1" id="图层_1" xmlns="http://www.w3.org/2000/svg" xmlns:xlink="http://www.w3.org/1999/xlink" x="0px" y="0px"
	 viewBox="0 0 18 26" style="enable-background:new 0 0 18 26;" xml:space="preserve">
<style type="text/css">
	.st0{fill:#393B4B;}
</style>
<path class="st0" d="M9,0c4.5,0,8.1,3.6,8.1,8.1c0,1.8-0.6,3.5-1.6,4.9l0,6.5c0,3.6-2.9,6.5-6.5,6.5c-3.6,0-6.5-2.9-6.5-6.5V13
	c-1-1.4-1.6-3-1.6-4.9C0.9,3.6,4.5,0,9,0z M4.1,19.5c0,2.7,2.2,4.9,4.9,4.9c2.7,0,4.9-2.2,4.9-4.9v-4.9c-1.4,1-3,1.6-4.9,1.6
	c-1.8,0-3.5-0.6-4.9-1.6L4.1,19.5z M3.9,12.2l0.2,0.2c1.2,1.4,2.9,2.2,4.9,2.2c3.6,0,6.5-2.9,6.5-6.5S12.6,1.6,9,1.6
	c-3.6,0-6.5,2.9-6.5,6.5C2.5,9.7,3,11.1,3.9,12.2z M9,4.9c0.4,0,0.8,0.4,0.8,0.8v3.2c0,0.4-0.4,0.8-0.8,0.8c-0.4,0-0.8-0.4-0.8-0.8
	V5.7C8.2,5.2,8.6,4.9,9,4.9z M4.1,19.5c0,2.7,2.2,4.9,4.9,4.9c2.7,0,4.9-2.2,4.9-4.9v-4.9c-1.4,1-3,1.6-4.9,1.6
	c-1.8,0-3.5-0.6-4.9-1.6L4.1,19.5z"/>
</svg>
