<?xml version="1.0" encoding="utf-8"?>
<!-- Generator: Adobe Illustrator 19.0.1, SVG Export Plug-In . SVG Version: 6.00 Build 0)  -->
<svg version="1.1" id="图层_1" xmlns="http://www.w3.org/2000/svg" xmlns:xlink="http://www.w3.org/1999/xlink" x="0px" y="0px"
	 viewBox="0 0 20 24" style="enable-background:new 0 0 20 24;" xml:space="preserve">
<style type="text/css">
	.st0{fill:#FFFFFF;}
</style>
<path class="st0" d="M15,0H6.7C5.7,0,5,0.7,5,1.7v15c0,0.9,0.7,1.7,1.7,1.7h11.7c0.9,0,1.7-0.7,1.7-1.7V5L15,0z M15,2.4L17.6,5H15
	V2.4z M18.3,16.7H6.7v-15h6.7V5c0,0.9,0.7,1.7,1.7,1.7h3.3V16.7z M9.2,8.3h6.7c0.5,0,0.8,0.4,0.8,0.8l0,0c0,0.5-0.4,0.8-0.8,0.8H9.2
	c-0.5,0-0.8-0.4-0.8-0.8l0,0C8.3,8.7,8.7,8.3,9.2,8.3z M9.2,11.7h6.7c0.5,0,0.8,0.4,0.8,0.8l0,0c0,0.5-0.4,0.8-0.8,0.8H9.2
	c-0.5,0-0.8-0.4-0.8-0.8l0,0C8.3,12,8.7,11.7,9.2,11.7z M13.3,21.7H1.7v-15h0.8c0.5,0,0.8-0.4,0.8-0.8l0,0C3.3,5.4,3,5,2.5,5H1.7
	C0.7,5,0,5.7,0,6.7v15c0,0.9,0.7,1.7,1.7,1.7h11.7c0.9,0,1.7-0.7,1.7-1.7v-0.8c0-0.5-0.4-0.8-0.8-0.8l0,0c-0.5,0-0.8,0.4-0.8,0.8
	V21.7z"/>
</svg>
