<?xml version="1.0" encoding="utf-8"?>
<!-- Generator: Adobe Illustrator 19.0.1, SVG Export Plug-In . SVG Version: 6.00 Build 0)  -->
<svg version="1.1" id="图层_1" xmlns="http://www.w3.org/2000/svg" xmlns:xlink="http://www.w3.org/1999/xlink" x="0px" y="0px"
	 viewBox="0 0 140 140" style="enable-background:new 0 0 140 140;" xml:space="preserve">
<style type="text/css">
	.st0{fill:#AAAAAA;}
</style>
<g>
	<path class="st0" d="M140,18.7V0H0v18.7h4.7V112H2.3C1,112,0,113,0,114.3s1,2.3,2.3,2.3h65.3v4.7c0,0.1,0,0.2,0.1,0.3
		c-4,1-7.1,4.7-7.1,9c0,5.1,4.2,9.3,9.3,9.3s9.3-4.2,9.3-9.3c0-4.4-3-8-7.1-9c0-0.1,0.1-0.2,0.1-0.3v-4.7h65.3c1.3,0,2.3-1,2.3-2.3
		c0-1.3-1-2.3-2.3-2.3h-2.3V18.7H140z M74.7,130.7c0,2.6-2.1,4.7-4.7,4.7c-2.6,0-4.7-2.1-4.7-4.7c0-2.6,2.1-4.7,4.7-4.7
		C72.6,126,74.7,128.1,74.7,130.7L74.7,130.7z M4.7,4.7h130.7V14H4.7V4.7z M130.7,112H9.3V18.7h121.3L130.7,112L130.7,112z"/>
	<path class="st0" d="M84,105c1.3,0,2.3-1,2.3-2.3v-7c0-1.3-1-2.3-2.3-2.3c-1.3,0-2.3,1-2.3,2.3v7C81.7,104,82.7,105,84,105L84,105z
		 M93.3,84C92,84,91,85,91,86.3v16.3c0,1.3,1,2.3,2.3,2.3c1.3,0,2.3-1,2.3-2.3V86.3C95.7,85,94.6,84,93.3,84L93.3,84z M102.7,88.7
		c-1.3,0-2.3,1-2.3,2.3v11.7c0,1.3,1,2.3,2.3,2.3c1.3,0,2.3-1,2.3-2.3c0,0,0,0,0,0V91C105,89.7,104,88.7,102.7,88.7z M112,72.3
		c-1.3,0-2.3,1-2.3,2.3v28c0,1.3,1,2.3,2.3,2.3c1.3,0,2.3-1,2.3-2.3v-28C114.3,73.4,113.3,72.3,112,72.3L112,72.3z M121.3,81.7
		c-1.3,0-2.3,1-2.3,2.3v18.7c0,1.3,1,2.3,2.3,2.3c1.3,0,2.3-1,2.3-2.3c0,0,0,0,0,0V84C123.7,82.7,122.6,81.7,121.3,81.7z M23.3,93.3
		h23.3c1.3,0,2.3-1,2.3-2.3c0-1.3-1-2.3-2.3-2.3H23.3c-1.3,0-2.3,1-2.3,2.3C21,92.3,22,93.3,23.3,93.3z M58.3,98h-35
		c-1.3,0-2.3,1-2.3,2.3c0,1.3,1,2.3,2.3,2.3h35c1.3,0,2.3-1,2.3-2.3C60.7,99,59.6,98,58.3,98C58.3,98,58.3,98,58.3,98L58.3,98z
		 M45.5,79.3c6.7,0,12.9-2.5,17.6-6.6c0.1-0.1,0.1-0.1,0.2-0.1c0,0,0-0.1,0.1-0.1c5.1-4.5,8.3-10.9,8.9-17.7l0,0l0-1
		c0-0.2,0-0.4,0-0.6c0-0.2,0-0.4,0-0.6c0-0.3,0-0.6,0-0.8c0-0.4,0-0.8-0.1-1.2c0-0.6-0.1-1.1-0.2-1.7c0-0.3-0.1-0.7-0.2-1
		c-0.1-0.6-0.2-1.2-0.4-1.8c-0.1-0.3-0.1-0.5-0.2-0.8c-0.2-0.6-0.4-1.2-0.6-1.8c-0.1-0.3-0.2-0.5-0.3-0.8c-0.2-0.6-0.5-1.1-0.7-1.6
		c-0.1-0.3-0.3-0.6-0.4-0.9c-0.2-0.5-0.5-0.9-0.8-1.3c-0.2-0.4-0.4-0.7-0.6-1.1c-0.2-0.3-0.4-0.6-0.6-0.9c-0.3-0.4-0.6-0.9-1-1.3
		l0,0c-0.5-0.7-1.1-1.3-1.7-1.9c-0.6-0.6-1.2-1.1-1.8-1.6l-0.1-0.1c-0.4-0.3-0.8-0.6-1.2-0.9c-0.3-0.2-0.7-0.5-1-0.7
		c-0.3-0.2-0.6-0.4-0.9-0.6c-0.5-0.3-1-0.6-1.5-0.9c-0.2-0.1-0.5-0.2-0.7-0.3c-0.6-0.3-1.2-0.6-1.9-0.8c-0.2-0.1-0.4-0.1-0.5-0.2
		c-0.7-0.3-1.4-0.5-2.1-0.7c-0.2-0.1-0.4-0.1-0.6-0.1c-0.7-0.2-1.4-0.3-2.1-0.5c-0.3,0-0.5-0.1-0.8-0.1c-0.6-0.1-1.2-0.2-1.8-0.2
		c-0.4,0-0.7,0-1.1-0.1c-0.3,0-0.6,0-0.9,0c-0.2,0-0.4,0-0.6,0c-0.2,0-0.4,0-0.6,0l-0.9,0.1l0,0c-13.8,1.1-24.6,12.7-24.6,26.7
		C18.7,67.3,30.7,79.3,45.5,79.3z M61.6,67.7L50,56h17.4C66.7,60.4,64.7,64.4,61.6,67.7z M47.4,30.4c0.8,0.1,1.5,0.2,2.3,0.3
		c0.2,0,0.3,0.1,0.5,0.1c0.6,0.1,1.3,0.3,1.9,0.5l0.1,0C59,33.5,64.5,39,66.7,45.9l0,0.1c0.2,0.6,0.3,1.2,0.5,1.9
		c0,0.2,0.1,0.3,0.1,0.5c0.1,0.8,0.2,1.5,0.3,2.3c0,0.2,0,0.5,0,0.7H46.7V30.4C46.9,30.4,47.1,30.4,47.4,30.4z M42,30.6v22.9l0,0.1
		l0,0l0.1,2.3h1.3l14.7,14.7c-3.7,2.6-8.1,3.9-12.6,3.9c-12.2,0-22.2-9.9-22.2-22.2C23.3,41.5,31.4,32.3,42,30.6z M91,44.3h18.7
		c1.3,0,2.3-1,2.3-2.3c0-1.3-1-2.3-2.3-2.3c0,0,0,0,0,0H91c-1.3,0-2.3,1-2.3,2.3C88.7,43.3,89.7,44.3,91,44.3
		C91,44.3,91,44.3,91,44.3z M119.7,40.3c-0.4,0.4-0.7,1-0.7,1.7c0,0.6,0.3,1.2,0.7,1.7c0.4,0.4,1,0.7,1.7,0.7c0.6,0,1.2-0.3,1.7-0.7
		c0.4-0.4,0.7-1,0.7-1.7c0-0.6-0.3-1.2-0.7-1.7C122.1,39.5,120.5,39.5,119.7,40.3L119.7,40.3z M114.3,32.7h7c1.3,0,2.3-1,2.3-2.3
		c0-1.3-1-2.3-2.3-2.3c0,0,0,0,0,0h-7c-1.3,0-2.3,1-2.3,2.3C112,31.6,113,32.7,114.3,32.7C114.3,32.7,114.3,32.7,114.3,32.7z
		 M91,32.7h4.7c1.3,0,2.3-1,2.3-2.3c0-1.3-1-2.3-2.3-2.3c0,0,0,0,0,0H91c-1.3,0-2.3,1-2.3,2.3C88.7,31.6,89.7,32.7,91,32.7
		C91,32.7,91,32.7,91,32.7z M105,32.7c0.6,0,1.2-0.3,1.7-0.7c0.4-0.4,0.7-1,0.7-1.7c0-0.6-0.3-1.2-0.7-1.7c-0.9-0.9-2.4-0.9-3.3,0
		c-0.4,0.4-0.7,1-0.7,1.7s0.3,1.2,0.7,1.7C103.8,32.4,104.4,32.7,105,32.7L105,32.7z"/>
</g>
</svg>
