<?xml version="1.0" encoding="utf-8"?>
<!-- Generator: Adobe Illustrator 19.0.0, SVG Export Plug-In . SVG Version: 6.00 Build 0)  -->
<svg version="1.1" id="Layer_1" xmlns="http://www.w3.org/2000/svg" xmlns:xlink="http://www.w3.org/1999/xlink" x="0px" y="0px"
	 viewBox="0 0 525.8 160.1" style="enable-background:new 0 0 525.8 160.1;" xml:space="preserve">
<style type="text/css">
	.st0{fill:#FFFFFF;}
	.st1{fill:none;}
</style>
<polygon class="st0" points="0,65 17.6,65 34.1,131.9 51,65 68.6,65 44.3,158.4 24.2,158.4 "/>
<path class="st0" d="M103.5,65H80.6l-23.5,93.5h17.8l5.5-19.2h24l4.8,19.2h17.1L103.5,65z M83.1,124.4v-1.1h0.3l8.6-37l8.9,37H83.4
	L83.1,124.4z"/>
<polygon class="st0" points="134.3,65 134.3,158.4 150.3,158.4 150.3,86.2 169,158.4 183,158.4 201.7,86 201.7,158.4 217.5,158.4 
	217.5,65 192.8,65 175.9,126.4 159.4,65 "/>
<path class="st0" d="M433.7,65c-8.9,0-27.9,0-27.9,0v95H436c9.6,0,27.4-9.3,27.4-33.3c0-24,0-32.9,0-32.9
	C463.4,83.7,455.9,65,433.7,65z M445.1,126.4c0,12.1-6.9,16.9-12.1,16.9h-9.4V79.8c19.9,0,21.5,6.6,21.5,17.6
	C445.1,97.4,445.1,114.3,445.1,126.4z"/>
<polygon class="st0" points="475.3,65 475.3,158.4 525.8,158.4 525.8,142.9 493.3,142.9 493.3,118.9 516.9,118.9 516.9,102.4 
	493.1,102.4 493.1,81 523.7,81 523.7,65 "/>
<g>
	<path class="st0" d="M377.6,41.2C377.6,41.2,377.6,41.2,377.6,41.2c-0.1-0.3-0.2-0.6-0.3-0.9c0,0,0,0,0-0.1
		c-0.1-0.2-0.2-0.4-0.4-0.6c0,0-0.1-0.1-0.1-0.1c-0.1-0.2-0.3-0.3-0.4-0.5c0,0-0.1-0.1-0.2-0.1c-0.2-0.2-0.4-0.3-0.7-0.4
		c0,0,0,0,0,0L295,0.3c0,0,0,0,0,0c-0.1,0-0.1,0-0.2-0.1c-0.1-0.1-0.3-0.1-0.4-0.1c-0.1,0-0.2,0-0.2,0c-0.1,0-0.3,0-0.4-0.1
		c-0.1,0-0.2,0-0.2,0c-0.2,0-0.4,0-0.6,0c0,0-0.1,0-0.1,0l-18.9,3.4c-1.2,0.2-2.2,1-2.7,2.1c-0.5,1.1-0.5,2.3,0.1,3.4l24.6,43.2
		l-13,2.3c-1.6,0.3-2.8,1.5-3,3.1l-7.6,57.3c-0.2,1.2,0.3,2.3,1.1,3.1c0.8,0.8,2,1.2,3.2,1l17.3-3.1c0.3,0,0.5-0.1,0.8-0.2
		c0,0,0.1,0,0.1-0.1c0.3-0.1,0.5-0.3,0.8-0.5c0,0,0.1,0,0.1-0.1l80.7-70.3c0,0,0,0,0,0c0.2-0.2,0.4-0.4,0.6-0.6
		c0.1-0.1,0.1-0.2,0.1-0.2c0.1-0.1,0.1-0.2,0.2-0.3c0-0.1,0.1-0.2,0.1-0.3c0-0.1,0-0.1,0.1-0.2c0.1-0.3,0.1-0.5,0.2-0.8
		c0,0,0-0.1,0-0.1C377.6,41.8,377.6,41.5,377.6,41.2z M368.6,41.2l-47.2,8.4l-24-42.1L368.6,41.2z M277.1,8.2l15.4-2.7l25.4,44.7
		l-15.4,2.7L277.1,8.2z M291.7,110.8l-13.8,2.5l7.1-53.9l13.8-2.5L291.7,110.8z M295.4,108.1l6.9-51.8l66.8-11.9L295.4,108.1z"/>
</g>
<g>
	<polygon class="st0" points="376.8,64.8 376.8,119.8 353,64.8 351.5,64.8 332.8,81.2 332.8,158.8 348.7,158.8 348.9,99.4 
		377,158.8 393.8,158.8 393.8,64.8 	"/>
</g>
<g>
	<path class="st1" d="M242.7,111c0,18.8,14.6,34.1,32.5,34.1s32.5-15.2,32.5-34.1c0-2.8-0.3-5.6-1-8.3l-3.6,3.1l-11.8-13.8l6.5-5.5
		c-0.8-0.8-1.7-1.6-2.6-2.4l-0.4,2.9l-17-2.2l1-7.8c-1.2-0.1-2.4-0.2-3.6-0.2C257.2,76.9,242.7,92.2,242.7,111z"/>
	<path class="st0" d="M320.6,90.9l-13.9,11.8c0.6,2.6,1,5.4,1,8.3c0,18.8-14.6,34.1-32.5,34.1s-32.5-15.2-32.5-34.1
		c0-18.8,14.6-34.1,32.5-34.1c1.2,0,2.4,0.1,3.6,0.2l1.9-15c-1.8-0.2-3.6-0.3-5.5-0.3c-27.5,0-49.7,22-49.7,49.1
		s22.3,49.1,49.7,49.1s49.7-22,49.7-49.1C324.9,103.8,323.4,97,320.6,90.9z"/>
</g>
</svg>
