<?xml version="1.0" encoding="utf-8"?>
<!-- Generator: Adobe Illustrator 19.1.0, SVG Export Plug-In . SVG Version: 6.00 Build 0)  -->
<!DOCTYPE svg PUBLIC "-//W3C//DTD SVG 1.1//EN" "http://www.w3.org/Graphics/SVG/1.1/DTD/svg11.dtd">
<svg version="1.1" id="Layer_1" xmlns="http://www.w3.org/2000/svg" xmlns:xlink="http://www.w3.org/1999/xlink" x="0px" y="0px"
	 viewBox="-379 248 200 65" style="enable-background:new -379 248 200 65;" xml:space="preserve">
<style type="text/css">
	.st0{fill:#3A3C4C;}
	.st1{fill:#CC4B28;}
	.st2{fill:#FFFFFF;}
</style>
<g>
	<polygon class="st0" points="-377,274.6 -370.4,274.6 -364.3,299.5 -358,274.6 -351.5,274.6 -360.5,309.4 -368,309.4 	"/>
	<path class="st0" d="M-338.5,274.6h-8.5l-8.8,34.8h6.6l2-7.1h8.9l1.8,7.1h6.4L-338.5,274.6z M-346,296.7v-0.4h0.1l3.2-13.8
		l3.3,13.8h-6.5L-346,296.7z"/>
	<polygon class="st0" points="-327,274.6 -327,309.4 -321,309.4 -321,282.5 -314,309.4 -308.9,309.4 -301.9,282.4 -301.9,309.4 
		-296,309.4 -296,274.6 -305.2,274.6 -311.5,297.5 -317.6,274.6 	"/>
	<path class="st0" d="M-274.5,273.4c-10.2,0-18.5,8.2-18.5,18.3c0,10.1,8.3,18.3,18.5,18.3s18.5-8.2,18.5-18.3
		C-256,281.6-264.3,273.4-274.5,273.4z M-274.5,304.4c-6.7,0-12.1-5.7-12.1-12.7c0-7,5.4-12.7,12.1-12.7s12.1,5.7,12.1,12.7
		C-262.4,298.7-267.8,304.4-274.5,304.4z"/>
	<polygon class="st0" points="-247.1,309.4 -253,309.4 -253,274.6 -245.5,274.6 -236.7,295 -236.7,274.6 -230.4,274.6 -230.4,309.4 
		-236.6,309.4 -247.1,287.2 	"/>
	<path class="st0" d="M-215.5,274.6c-3.3,0-10.4,0-10.4,0V310h11.2c3.6,0,10.2-3.5,10.2-12.4c0-8.9,0-12.3,0-12.3
		C-204.4,281.5-207.2,274.6-215.5,274.6z M-211.2,297.5c0,4.5-2.6,6.3-4.5,6.3h-3.5v-23.7c7.4,0,8,2.5,8,6.6
		C-211.2,286.7-211.2,293-211.2,297.5z"/>
	<polygon class="st0" points="-200,274.6 -200,309.4 -181.2,309.4 -181.2,303.6 -193.3,303.6 -193.3,294.7 -184.5,294.7 
		-184.5,288.5 -193.4,288.5 -193.4,280.5 -182,280.5 -182,274.6 	"/>
</g>
<g>
	<path class="st0" d="M-267.4,250.4C-267.4,250.4-267.5,250.4-267.4,250.4c-0.1,0-0.2,0-0.2,0c0,0-0.1,0-0.1,0c-0.1,0-0.1,0-0.2,0
		c0,0,0,0,0,0l-7,1.3c-0.4,0.1-0.8,0.4-1,0.8c-0.2,0.4-0.2,0.9,0.1,1.3l9.2,16.1l-4.8,0.9c-0.6,0.1-1,0.6-1.1,1.2l-2.8,21.3
		c-0.1,0.4,0.1,0.9,0.4,1.2c0.3,0.3,0.8,0.4,1.2,0.4l6.4-1.1c0.1,0,0.2,0,0.3-0.1c0,0,0,0,0,0c0.1,0,0.2-0.1,0.3-0.2c0,0,0,0,0,0
		l30.1-26.2c0,0,0,0,0,0c0.1-0.1,0.2-0.2,0.2-0.2c0,0,0-0.1,0.1-0.1c0,0,0-0.1,0.1-0.1c0,0,0-0.1,0-0.1c0,0,0,0,0-0.1
		c0-0.1,0.1-0.2,0.1-0.3c0,0,0,0,0-0.1c0-0.1,0-0.2,0-0.3l0,0l0,0c0,0,0,0,0,0c0-0.1-0.1-0.2-0.1-0.3c0,0,0,0,0,0
		c0-0.1-0.1-0.1-0.1-0.2c0,0,0,0,0,0c-0.1-0.1-0.1-0.1-0.2-0.2c0,0,0,0-0.1,0c-0.1-0.1-0.2-0.1-0.2-0.2c0,0,0,0,0,0l-30-14.2
		c0,0,0,0,0,0c0,0,0,0-0.1,0C-267.3,250.4-267.3,250.4-267.4,250.4z"/>
	<g>
		<g>
			<polygon class="st1" points="-258.6,269.1 -264.3,270.1 -273.8,253.4 -268.1,252.4 			"/>
		</g>
		<g>
			<polygon class="st1" points="-239.7,265.7 -257.3,268.8 -266.2,253.1 			"/>
		</g>
	</g>
	<g>
		<g>
			<polygon class="st2" points="-268.4,291.6 -273.5,292.6 -270.8,272.5 -265.7,271.6 			"/>
		</g>
		<g>
			<polygon class="st2" points="-267,290.6 -264.4,271.3 -239.5,266.9 			"/>
		</g>
	</g>
</g>
</svg>
