<?xml version="1.0" encoding="utf-8"?>
<!-- Generator: Adobe Illustrator 19.0.1, SVG Export Plug-In . SVG Version: 6.00 Build 0)  -->
<svg version="1.1" id="图层_1" xmlns="http://www.w3.org/2000/svg" xmlns:xlink="http://www.w3.org/1999/xlink" x="0px" y="0px"
	 viewBox="0 0 362 672" style="enable-background:new 0 0 362 672;" xml:space="preserve">
<style type="text/css">
	.st0{fill:#393B4B;}
</style>
<g>
	<path class="st0" d="M316.6,665.3H48.5c-21.5,0-39-17.4-39-38.8V44.9c0-21.4,17.5-38.8,39-38.8h268.1c21.5,0,39,17.4,39,38.8v581.6
		C355.6,647.9,338.1,665.3,316.6,665.3z M48.5,7.2c-20.9,0-37.9,16.9-37.9,37.7v581.6c0,20.8,17,37.7,37.9,37.7h268.1
		c20.9,0,37.9-16.9,37.9-37.7V44.9c0-20.8-17-37.7-37.9-37.7H48.5z"/>
	<g>
		<path class="st0" d="M136,38.1c-3.2,0-5.9-2.6-5.9-5.8c0-3.2,2.6-5.8,5.9-5.8c3.2,0,5.9,2.6,5.9,5.8
			C141.8,35.5,139.2,38.1,136,38.1z M136,27.5c-2.7,0-4.8,2.1-4.8,4.8c0,2.6,2.2,4.8,4.8,4.8c2.7,0,4.8-2.1,4.8-4.8
			C140.8,29.7,138.6,27.5,136,27.5z"/>
		<path class="st0" d="M201.5,34.9h-39.8c-1.7,0-3.1-1.4-3.1-3s1.4-3,3.1-3h39.8c1.7,0,3.1,1.4,3.1,3S203.2,34.9,201.5,34.9z
			 M161.7,29.9c-1.1,0-2,0.9-2,2c0,1.1,0.9,2,2,2h39.8c1.1,0,2-0.9,2-2c0-1.1-0.9-2-2-2H161.7z"/>
	</g>
	<g>
		<path class="st0" d="M182.5,650.1c-11,0-20-8.9-20-19.9c0-11,9-19.9,20-19.9c11,0,20,8.9,20,19.9
			C202.6,641.1,193.6,650.1,182.5,650.1z M182.5,611.3c-10.5,0-19,8.5-19,18.9c0,10.4,8.5,18.9,19,18.9c10.5,0,19-8.5,19-18.9
			C201.5,619.7,193,611.3,182.5,611.3z"/>
		<path class="st0" d="M182.5,654c-13.2,0-24-10.7-24-23.8c0-13.1,10.8-23.8,24-23.8c13.2,0,24,10.7,24,23.8
			C206.5,643.3,195.8,654,182.5,654z M182.5,607.4c-12.6,0-22.9,10.2-22.9,22.8c0,12.6,10.3,22.8,22.9,22.8
			c12.6,0,22.9-10.2,22.9-22.8C205.5,617.6,195.2,607.4,182.5,607.4z"/>
	</g>
	<g>
		<path class="st0" d="M4.6,88.5H0.5V60.4h4.1V88.5z M1.6,87.4h2v-26h-2V87.4z"/>
		<path class="st0" d="M4.6,157.5H0.5v-44.3h4.1V157.5z M1.6,156.4h2v-42.2h-2V156.4z"/>
		<path class="st0" d="M4.6,210.3H0.5V166h4.1V210.3z M1.6,209.2h2v-42.2h-2V209.2z"/>
	</g>
	<g>
		<path class="st0" d="M341.6,592.3H23.5V59.4h318.1V592.3z M24.6,591.2h316V60.4h-316V591.2z"/>
	</g>
	<path class="st0" d="M321.1,672H44c-22.6,0-40.9-18.2-40.9-40.7V210.8H0v-45.3h3.1V158H0v-45.3h3.1V89H0V59.8h3.1V40.7
		C3.1,18.2,21.4,0,44,0h277.1C343.7,0,362,18.2,362,40.7v590.7C362,653.8,343.7,672,321.1,672z M2.1,208.7h3.1v422.6
		c0,21.3,17.4,38.6,38.8,38.6h277.1c21.4,0,38.8-17.3,38.8-38.6V40.7c0-21.3-17.4-38.6-38.8-38.6H44C22.6,2.1,5.2,19.4,5.2,40.7
		v21.3H2.1v25h3.1v27.9H2.1v41.1h3.1v11.7H2.1V208.7z"/>
</g>
</svg>
