<?xml version="1.0" encoding="utf-8"?>
<!-- Generator: Adobe Illustrator 19.0.1, SVG Export Plug-In . SVG Version: 6.00 Build 0)  -->
<svg version="1.1" id="图层_1" xmlns="http://www.w3.org/2000/svg" xmlns:xlink="http://www.w3.org/1999/xlink" x="0px" y="0px"
	 viewBox="0 0 26 30" style="enable-background:new 0 0 26 30;" xml:space="preserve">
<style type="text/css">
	.st0{fill:#393B4B;}
</style>
<g>
	<path class="st0" d="M12,24.6v-4.7c0-0.6,0.4-1,1-1c0.6,0,1,0.4,1,1v4.7c0,0.6-0.4,1-1,1C12.4,25.6,12,25.1,12,24.6z"/>
	<path class="st0" d="M10.8,19.8c0-1.2,1-2.2,2.2-2.2l0,0c1.2,0,2.2,1,2.2,2.2l0,0c0,1.2-1,2.2-2.2,2.2l0,0
		C11.8,22.1,10.8,21.1,10.8,19.8L10.8,19.8z"/>
	<path class="st0" d="M24.1,13.1c0.2,0,0.4,0.2,0.4,0.4v14.7c0,0.2-0.2,0.4-0.4,0.4H1.9c-0.2,0-0.4-0.2-0.4-0.4V13.4
		c0-0.2,0.2-0.4,0.4-0.4H24.1 M24.1,11.6H1.9c-1.1,0-1.9,0.8-1.9,1.8v14.7c0,1,0.9,1.8,1.9,1.8h22.2c1.1,0,1.9-0.8,1.9-1.8V13.4
		C26,12.4,25.1,11.6,24.1,11.6L24.1,11.6z"/>
	<path class="st0" d="M13,1.7c3.4,0,6.2,2.8,6.2,6.2v3.6H6.8V7.8C6.8,4.4,9.6,1.7,13,1.7L13,1.7 M13,0.1L13,0.1
		c-4.2,0-7.7,3.4-7.7,7.7V13h15.4V7.8C20.7,3.6,17.2,0.1,13,0.1L13,0.1z"/>
</g>
</svg>
