<?xml version="1.0" encoding="utf-8"?>
<!-- Generator: Adobe Illustrator 19.0.1, SVG Export Plug-In . SVG Version: 6.00 Build 0)  -->
<svg version="1.1" id="图层_1" xmlns="http://www.w3.org/2000/svg" xmlns:xlink="http://www.w3.org/1999/xlink" x="0px" y="0px"
	 viewBox="0 0 26 20" style="enable-background:new 0 0 26 20;" xml:space="preserve">
<style type="text/css">
	.st0{fill:#393B4B;}
</style>
<g>
	<path class="st0" d="M24.7,0.1H1.3c-0.6,0-1.2,0.5-1.2,1.2v17.5c0,0.6,0.5,1.2,1.2,1.2h23.4c0.6,0,1.2-0.5,1.2-1.2V1.3
		C25.9,0.6,25.3,0.1,24.7,0.1z M24.9,1.7v14.2l-7.6-7.5L24.9,1.7z M24.1,1.1l-10.7,9.4c-0.2,0.2-0.6,0.2-0.9,0L1.9,1.1L24.1,1.1
		L24.1,1.1z M8.7,8.3L1.1,16V1.7L8.7,8.3z M24.7,18.9H1.3c-0.1,0-0.2-0.1-0.2-0.2v-1.4L9.4,9l2.5,2.2c0.3,0.3,0.7,0.4,1.1,0.4
		s0.8-0.1,1.1-0.4l2.5-2.2l8.3,8.3v1.5C24.9,18.8,24.8,18.9,24.7,18.9L24.7,18.9z"/>
	<path class="st0" d="M24.7,20H1.3C0.6,20,0,19.4,0,18.7V1.3C0,0.6,0.6,0,1.3,0h23.4C25.4,0,26,0.6,26,1.3v17.5
		C26,19.4,25.4,20,24.7,20z M1.3,0.2c-0.6,0-1,0.5-1,1v17.5c0,0.6,0.5,1,1,1h23.4c0.6,0,1-0.5,1-1V1.3c0-0.6-0.5-1-1-1H1.3z
		 M24.7,19H1.3C1.1,19,1,18.9,1,18.7v-1.5l0,0l8.4-8.4l2.6,2.3c0.2,0.2,0.6,0.4,1,0.4c0.4,0,0.7-0.1,1-0.4l2.6-2.3l0.1,0.1l8.3,8.3
		v1.5C25,18.9,24.9,19,24.7,19z M1.2,17.4v1.4c0,0,0,0.1,0.1,0.1h23.4c0,0,0.1,0,0.1-0.1v-1.4l-8.2-8.2l-2.4,2.2
		c-0.3,0.3-0.7,0.4-1.2,0.4c-0.5,0-0.9-0.1-1.2-0.4L9.4,9.1L1.2,17.4z M1,16.2V1.4l7.9,6.9L1,16.2z M1.2,1.9v13.7l7.3-7.3L1.2,1.9z
		 M25,16.2l-7.9-7.8l0.1-0.1L25,1.4V16.2z M17.5,8.3l7.3,7.2V1.9L17.5,8.3z M13,10.8c-0.2,0-0.4-0.1-0.5-0.2L1.6,1h22.9l-10.9,9.6
		C13.4,10.7,13.2,10.8,13,10.8z M2.2,1.2l10.4,9.2c0.2,0.2,0.5,0.2,0.7,0l10.4-9.2H2.2z"/>
</g>
</svg>
