<?xml version="1.0" encoding="utf-8"?>
<!-- Generator: Adobe Illustrator 19.0.1, SVG Export Plug-In . SVG Version: 6.00 Build 0)  -->
<svg version="1.1" id="图层_1" xmlns="http://www.w3.org/2000/svg" xmlns:xlink="http://www.w3.org/1999/xlink" x="0px" y="0px"
	 viewBox="0 0 32 22" style="enable-background:new 0 0 32 22;" xml:space="preserve">
<style type="text/css">
	.st0{fill:#808080;}
</style>
<path class="st0" d="M30.7,0H1.3C0.9,0,0.5,0.4,0.5,0.9v20.3c0,0.5,0.4,0.9,0.9,0.9h29.3c0.5,0,0.9-0.4,0.9-0.9l0-20.3
	C31.5,0.4,31.1,0,30.7,0L30.7,0z M5.4,19.5c0,0.3-0.2,0.5-0.5,0.5H2.6c-0.3,0-0.5-0.2-0.5-0.5v-2.2c0-0.3,0.2-0.5,0.5-0.5h2.2
	c0.3,0,0.5,0.2,0.5,0.5V19.5L5.4,19.5z M5.4,14.6c0,0.3-0.2,0.5-0.5,0.5H2.6c-0.3,0-0.5-0.2-0.5-0.5v-2.2c0-0.3,0.2-0.5,0.5-0.5h2.2
	c0.3,0,0.5,0.2,0.5,0.5V14.6L5.4,14.6z M5.4,9.7c0,0.3-0.2,0.5-0.5,0.5H2.6c-0.3,0-0.5-0.2-0.5-0.5V7.5C2.2,7.2,2.4,7,2.6,7h2.2
	c0.3,0,0.5,0.2,0.5,0.5V9.7L5.4,9.7z M5.4,4.7c0,0.3-0.2,0.5-0.5,0.5H2.6C2.4,5.2,2.2,5,2.2,4.7V2.5C2.2,2.2,2.4,2,2.6,2h2.2
	c0.3,0,0.5,0.2,0.5,0.5V4.7L5.4,4.7z M24.8,19.1c0,0.5-0.4,0.9-0.9,0.9H8c-0.5,0-0.9-0.4-0.9-0.9l0-16.3C7.2,2.4,7.5,2,8,2h16
	c0.5,0,0.9,0.4,0.9,0.9V19.1L24.8,19.1z M29.8,19.5c0,0.3-0.2,0.5-0.5,0.5h-2.2c-0.3,0-0.5-0.2-0.5-0.5v-2.2c0-0.3,0.2-0.5,0.5-0.5
	h2.2c0.3,0,0.5,0.2,0.5,0.5V19.5L29.8,19.5z M29.8,14.6c0,0.3-0.2,0.5-0.5,0.5h-2.2c-0.3,0-0.5-0.2-0.5-0.5v-2.2
	c0-0.3,0.2-0.5,0.5-0.5h2.2c0.3,0,0.5,0.2,0.5,0.5V14.6L29.8,14.6z M29.8,9.7c0,0.3-0.2,0.5-0.5,0.5h-2.2c-0.3,0-0.5-0.2-0.5-0.5
	V7.5c0-0.3,0.2-0.5,0.5-0.5h2.2c0.3,0,0.5,0.2,0.5,0.5V9.7L29.8,9.7z M29.8,4.7c0,0.3-0.2,0.5-0.5,0.5h-2.2c-0.3,0-0.5-0.2-0.5-0.5
	V2.5c0-0.3,0.2-0.5,0.5-0.5h2.2c0.3,0,0.5,0.2,0.5,0.5V4.7L29.8,4.7z M12.5,15l8-4l-8-4V15z"/>
</svg>
