<?xml version="1.0" encoding="utf-8"?>
<!-- Generator: Adobe Illustrator 19.0.1, SVG Export Plug-In . SVG Version: 6.00 Build 0)  -->
<svg version="1.1" id="图层_1" xmlns="http://www.w3.org/2000/svg" xmlns:xlink="http://www.w3.org/1999/xlink" x="0px" y="0px"
	 viewBox="0 0 30 20" style="enable-background:new 0 0 30 20;" xml:space="preserve">
<style type="text/css">
	.st0{fill:#FFFFFF;}
</style>
<g>
	<g>
		<path class="st0" d="M8.2,16.1c-0.2,0-0.3-0.1-0.5-0.2l-5.4-5.4c-0.3-0.3-0.3-0.7,0-1l5.4-5.4c0.3-0.3,0.7-0.3,1,0
			c0.3,0.3,0.3,0.7,0,1L3.8,10l4.9,4.9c0.3,0.3,0.3,0.7,0,1C8.6,16,8.4,16.1,8.2,16.1L8.2,16.1z"/>
		<path class="st0" d="M8.2,16.2c-0.2,0-0.4-0.1-0.6-0.2l-5.4-5.4C2.1,10.4,2,10.2,2,10c0-0.2,0.1-0.4,0.2-0.6L7.7,4
			C8,3.7,8.5,3.7,8.8,4c0.3,0.3,0.3,0.8,0,1.2L4,10l4.8,4.8C9,15,9.1,15.2,9.1,15.4c0,0.2-0.1,0.4-0.2,0.6c-0.1,0.1-0.2,0.1-0.3,0.2
			L8.2,16.2z M8.2,15.9L8.2,15.9c0.2,0,0.3-0.1,0.4-0.2c0.1-0.1,0.2-0.2,0.2-0.4c0-0.1-0.1-0.3-0.2-0.4l-5-5l5-5
			c0.2-0.2,0.2-0.5,0-0.7C8.4,4,8.1,4,7.9,4.2L2.4,9.6C2.3,9.7,2.3,9.9,2.3,10s0.1,0.3,0.2,0.4l5.4,5.4C8,15.9,8.1,15.9,8.2,15.9z"
			/>
	</g>
	<g>
		<path class="st0" d="M21.8,16.1c-0.2,0-0.3-0.1-0.5-0.2c-0.3-0.3-0.3-0.7,0-1l4.9-4.9l-4.9-4.9c-0.3-0.3-0.3-0.7,0-1
			c0.3-0.3,0.7-0.3,1,0l5.4,5.4c0.3,0.3,0.3,0.7,0,1l-5.4,5.4C22.1,16,21.9,16.1,21.8,16.1L21.8,16.1z"/>
		<path class="st0" d="M21.8,16.2l-0.3-0.1c-0.1,0-0.2-0.1-0.3-0.2c-0.2-0.2-0.2-0.4-0.2-0.6c0-0.2,0.1-0.4,0.2-0.6L26,10l-4.8-4.8
			C21,5,20.9,4.8,20.9,4.6c0-0.2,0.1-0.4,0.2-0.6c0.3-0.3,0.9-0.3,1.2,0l5.4,5.4c0.3,0.3,0.3,0.8,0,1.2L22.3,16
			C22.2,16.2,22,16.2,21.8,16.2z M21.8,4.1c-0.1,0-0.3,0.1-0.4,0.2c-0.1,0.1-0.2,0.2-0.2,0.4c0,0.1,0.1,0.3,0.2,0.4l5,5l-0.1,0.1
			L21.4,15c-0.1,0.1-0.2,0.2-0.2,0.4s0.1,0.3,0.2,0.4c0.1,0.1,0.2,0.2,0.4,0.2h0c0.1,0,0.2-0.1,0.3-0.2l5.4-5.4
			c0.2-0.2,0.2-0.5,0-0.7l-5.4-5.4C22,4.1,21.9,4.1,21.8,4.1z"/>
	</g>
	<g>
		<path class="st0" d="M11.6,16.1c-0.1,0-0.2,0-0.4-0.1c-0.3-0.2-0.4-0.6-0.2-0.9l6.8-10.8C18,3.9,18.4,3.8,18.7,4
			c0.3,0.2,0.4,0.6,0.2,0.9l-6.8,10.8C12.1,16,11.8,16.1,11.6,16.1z"/>
		<path class="st0" d="M11.6,16.2c-0.2,0-0.3,0-0.4-0.1c-0.4-0.2-0.5-0.7-0.3-1.1l6.8-10.8c0.2-0.4,0.8-0.5,1.1-0.3
			c0.4,0.2,0.5,0.8,0.3,1.1l-6.8,10.8C12.2,16.1,11.9,16.2,11.6,16.2z M18.4,4.1c-0.2,0-0.3,0.1-0.5,0.2l-6.8,10.8
			c-0.2,0.2-0.1,0.6,0.2,0.7c0.2,0.2,0.6,0.1,0.7-0.2l6.8-10.8c0.2-0.2,0.1-0.6-0.2-0.7C18.6,4.1,18.5,4.1,18.4,4.1z"/>
	</g>
</g>
</svg>
