<?xml version="1.0" encoding="utf-8"?>
<!-- Generator: Adobe Illustrator 19.0.1, SVG Export Plug-In . SVG Version: 6.00 Build 0)  -->
<svg version="1.1" id="图层_1" xmlns="http://www.w3.org/2000/svg" xmlns:xlink="http://www.w3.org/1999/xlink" x="0px" y="0px"
	 viewBox="0 0 30 22" style="enable-background:new 0 0 30 22;" xml:space="preserve">
<style type="text/css">
	.st0{fill:#808080;}
</style>
<g>
	<path class="st0" d="M0.8,21.7H26V3.5H0.8V21.7z M1.8,4.6h23V16l-3.8-3.8l-0.6,0.6l0,0L16.4,17L9.3,9.7l-0.7,0.7l0,0l-6.8,6.9
		L1.8,4.6z M1.8,18.7l7.4-7.6l6.5,6.5l0,0l0.8,0.8l4.6-4.7l3.8,3.8v3.1H1.8V18.7z M17.3,12.6h0.3c1.4,0,2.6-1.1,2.6-2.6V9.8
		c0-1.4-1.1-2.6-2.6-2.6h-0.3c-1.4,0-2.6,1.1-2.6,2.6l0,0.3C14.7,11.5,15.9,12.6,17.3,12.6z M15.8,9.8c0-0.9,0.7-1.4,1.4-1.4h0.3
		c0.9,0,1.4,0.7,1.4,1.4v0.3c0,0.9-0.7,1.4-1.4,1.4h-0.3c-0.9,0-1.4-0.7-1.4-1.4V9.8z M28.6,0.3h-0.6H3.4v1v1.6h1.1V1.3h23.6v16.6
		h-1.6v1h1.6l1,0V0.3H28.6z"/>
	<path class="st0" d="M26.3,22H0.5V3.2h2.7V0h26.4v19.3h-3.2V22z M1.1,21.4h24.6V3.8H1.1V21.4z M26.9,18.7h2.1V0.6H3.7v2.1h0.6V1
		h24.2v17.2h-1.6V18.7z M26.3,17.6h1.6v-16h-23v1.6h21.4V17.6z M25.2,20.9H1.5v-2.3l7.7-7.9l7.3,7.3l4.6-4.7l4.1,4.1V20.9z
		 M2.1,20.3h22.5v-2.7l-3.5-3.5l-4.6,4.7l-7.3-7.3l-7.1,7.3V20.3z M1.5,18V4.3h23.6v12.5l-4.1-4.1L20.7,13l-4.3,4.4l-7.1-7.3
		l-0.5,0.5L1.5,18z M9.3,9.3l7.1,7.3l4.6-4.7l3.5,3.5V4.8H2.1v11.7L9.3,9.3z M17.6,12.9h-0.3c-1.6,0-2.9-1.3-2.9-2.8V9.8
		c0-1.6,1.3-2.8,2.9-2.8h0.3c1.6,0,2.9,1.3,2.9,2.8v0.3C20.4,11.6,19.1,12.9,17.6,12.9z M17.3,7.5c-1.3,0-2.3,1-2.3,2.3v0.3
		c0,1.3,1,2.3,2.3,2.3h0.3c1.3,0,2.3-1,2.3-2.3V9.8c0-1.3-1-2.3-2.3-2.3H17.3z M17.5,11.8h-0.3c-1,0-1.7-0.8-1.7-1.7V9.8
		c0-1,0.8-1.7,1.7-1.7h0.3c1,0,1.7,0.8,1.7,1.7v0.3C19.2,11,18.4,11.8,17.5,11.8z M17.2,8.6C16.6,8.6,16,9,16,9.8v0.3
		c0,0.5,0.4,1.1,1.1,1.1h0.3c0.5,0,1.1-0.4,1.1-1.1V9.8c0-0.5-0.4-1.1-1.1-1.1H17.2z"/>
</g>
</svg>
